PathFileType	4	(X/Y/Z)	Patient4_TMGait_0pt5_01_left_05.trc.trc
DataRate	CameraRate	NumFrames	NumMarkers	Units	OrigDataRate	OrigDataStartFrame	OrigNumFrames
70.351758793970	70.351758793970	6	33	mm	70.351758793970	71	       141
Frame#	Time	L.ASIS			Sacral			L.Shoulder			Chest			R.Shoulder			Neck			R.ASIS			R.Thigh.Superior			R.Thigh.Lateral			R.Thigh.Inferior			R.Patella			L.Thigh.Superior			L.Thigh.Lateral			L.Thigh.Inferior			L.Patella			L.Shank.Superior			L.Shank.Lateral			L.Shank.Inferior			R.Shank.Superior			R.Shank.Lateral			R.Shank.Inferior			R.Heel			R.Midfoot.Superior			R.Midfoot.Lateral			R.Toe			L.Heel			L.Midfoot.Lateral			L.Midfoot.Superior			L.Toe			L.Elbow			L.Wrist			R.Elbow			R.Wrist			
		X1	Y1	Z1	X2	Y2	Z2	X3	Y3	Z3	X4	Y4	Z4	X5	Y5	Z5	X6	Y6	Z6	X7	Y7	Z7	X8	Y8	Z8	X9	Y9	Z9	X10	Y10	Z10	X11	Y11	Z11	X12	Y12	Z12	X13	Y13	Z13	X14	Y14	Z14	X15	Y15	Z15	X16	Y16	Z16	X17	Y17	Z17	X18	Y18	Z18	X19	Y19	Z19	X20	Y20	Z20	X21	Y21	Z21	X22	Y22	Z22	X23	Y23	Z23	X24	Y24	Z24	X25	Y25	Z25	X26	Y26	Z26	X27	Y27	Z27	X28	Y28	Z28	X29	Y29	Z29	X30	Y30	Z30	X31	Y31	Z31	X32	Y32	Z32	X33	Y33	Z33	

71	7.575000000000	736.419219099688	958.536312098669	320.605145254566	510.153282508888	999.824963587083	460.113849967292	701.227767675426	1435.322090863937	303.614231145990	784.152926230349	1360.125724227408	473.752505407273	681.159099475927	1430.099650456077	640.053093811514	686.539210470642	1492.367736702714	455.308726042871	728.150569214214	938.341104800893	595.921443967128	799.637361130922	757.321716791534	566.599946726708	746.785199992138	638.825776519079	633.919475336892	831.487998042440	598.197097197355	551.460854731322	860.905686804337	517.001916914074	561.929242496849	745.217867847952	731.292871296011	354.120858651949	638.181548693717	633.707083670692	283.952547797503	692.139892698501	543.286115784639	356.607049273721	676.480812867332	476.041029940764	367.505251907185	647.068827761207	408.358369292605	356.623769891333	553.598417531897	301.257867485067	299.869511052947	585.298521145718	188.489067533956	377.706546069866	849.572664240385	429.458263104695	571.620750767374	805.424401219488	314.042229500866	636.880890540235	873.293079668870	230.720891977986	579.790422320460	782.345225933609	43.117315332755	554.094837091784	945.865578040094	119.132734122914	588.104870084681	869.924788862896	41.897872334058	624.149880376417	1071.389355076395	83.220874812282	607.234810080260	442.490146221152	37.545956274645	409.492295987647	520.858373401148	35.164595643459	333.335278787084	603.026615211631	95.309649861627	365.343099279041	732.281525523466	42.247817690486	343.493769041090	730.618183840092	1094.318481248863	159.115199454202	970.210551235897	1007.302882593797	196.383858884889	540.885983152469	1110.371212207294	729.941182351752	522.896687399442	849.880138315162	736.993699218270	
72	7.589214285714	737.605124891269	957.384214010681	322.816790019190	511.315864147017	998.398041041832	462.410078692873	701.264641272346	1434.323781247787	306.299662061333	784.325779417348	1359.147315480159	476.376323172308	680.978565270635	1428.696843760085	642.703919159466	686.275585319649	1491.199843843803	458.042188267784	729.407526297495	936.909283622589	598.118512581766	801.305550231500	756.237823597545	568.813466094946	747.188792313276	637.044071658079	634.834141693026	832.895847952159	597.104962642812	553.380563694829	860.955119965121	515.009137535436	563.157669682331	744.339646710884	729.588710905583	355.745692458525	636.027463811804	633.060148544576	285.547438048023	689.139074095673	542.017256885470	357.935447726692	672.780356364945	474.645643565960	368.796729417217	642.757614840809	407.351568630281	357.716705508426	548.165944230365	301.230056745422	300.703933455883	578.858283355431	187.957734758338	378.213681578325	848.565490643099	426.709769154142	572.451548385818	802.265632070880	312.145298416489	637.336490050086	868.365645857908	227.862096410601	580.046212329745	773.887593279272	42.905166754509	554.401321631598	938.456332799450	115.640282452468	587.907660503506	861.270253332499	40.652942285986	624.561296010586	1063.269406928942	77.670668100835	607.253726433036	435.259570631734	37.304453498705	409.575723274957	513.655758179388	35.058511017876	333.444149466706	595.800218098370	95.261409753209	365.488777775285	725.110098505802	42.220483316150	343.480566886957	733.553595098903	1093.868929749526	161.478843617441	974.584425115650	1011.856548883546	199.775146695924	544.406592261536	1106.994500776901	732.404136173773	533.038127339449	846.051431940700	739.629942642184	
73	7.603428571429	738.859511537641	956.257124904215	325.094165887172	512.624273192011	996.928995728669	464.946596528556	701.255311948999	1433.333243119406	309.239040648531	784.572228347666	1358.185108443715	479.192987360046	680.920781518881	1427.222061886192	645.593162443488	686.038832243757	1490.029158165143	461.062427412712	730.988652465922	935.486720188805	600.337211944187	803.523399307045	755.269601337694	570.760339244324	748.173379640643	635.381112588136	635.451845833137	834.911433501454	596.127819641454	555.032522935016	861.498975235897	512.835809553202	564.196722313530	743.810819916334	727.911079033521	357.304047062794	634.220555735087	632.321031021886	287.348793361700	686.752622832176	540.690762740820	359.363568720167	669.783950117742	473.051037032757	370.227169338889	638.976891866395	406.191756534007	358.963079138720	543.037594909868	301.242655935882	301.674783665071	572.569805965955	187.377396488738	378.769996041815	847.658661133453	423.751596490968	573.064393100876	798.695905534514	310.223770478653	637.587652858040	862.547074836308	224.681764668147	580.034101199445	763.591477425236	42.815834458885	554.553321217156	929.458532116655	111.820144449701	587.522338291034	850.732902669713	39.453725653525	624.914499956743	1053.483250658896	71.397934459562	607.262714119607	428.025707944847	37.098873054049	409.670353387653	506.467984595942	34.952457269660	333.575832105581	588.619947189198	95.203937512383	365.633376252727	717.985732037421	42.144793259366	343.440900709800	736.130043826884	1093.383734672737	164.047744240639	978.287819537404	1015.671447723722	203.340242447847	548.293248950022	1103.462010677625	735.126965482104	544.324912368472	842.201269467485	742.641059047440	
74	7.617642857143	740.143787651355	955.205046921425	327.424094964459	514.035585712053	995.489782284596	467.687827008493	701.214328632535	1432.408170157065	312.417219731074	784.906174123011	1357.276623076361	482.181120679540	681.021816198933	1425.722394632480	648.701653773557	685.867159041270	1488.913211063516	464.362269593223	732.843747150922	934.146647414607	602.566217716299	806.087195382661	754.344738724884	572.454612860673	749.566083030557	633.878318070726	635.871751347083	837.231920449076	595.223177743414	556.388384910015	862.323847216254	510.580174208359	565.020765714229	743.670902084256	726.324106041122	358.807735741941	632.854606605625	631.503504941720	289.361185171171	685.113898002177	539.331954711238	360.895168875410	667.662341050232	471.263576722624	371.767517978645	635.844291992198	404.887060435816	360.352357662130	538.305966915639	301.346080209390	302.786642234295	566.508593933089	186.788947255472	379.360032378104	846.828909724482	420.765563090693	573.481514311094	795.032960227928	308.342666131317	637.699787262888	856.354173187359	221.412931292451	579.786823330043	752.458826973047	42.767339307192	554.594821288081	919.698203912306	108.040801681984	586.966486523755	839.361025500399	38.380757549372	625.201032866643	1042.966608943953	65.091169352207	607.199983483982	420.811537364877	37.040022108741	409.772018407127	499.314565861174	34.896567874267	333.728109074278	581.538494373803	95.147401697696	365.761982061310	710.924790407108	41.997802289677	343.371887489013	738.318359955119	1092.883191624069	166.834697609590	981.309112556361	1018.679549910938	207.073022031531	552.533117652109	1099.870620564850	738.100861825299	556.619869204311	838.480428748397	746.010912163001	
75	7.631857142857	741.409778233610	954.286285672348	329.798350609637	515.502694542719	994.160224088328	470.597151299358	701.156251941279	1431.618648743324	315.806072920483	785.332854633711	1356.471461084978	485.310761725850	681.305741323831	1424.264775457825	651.999990931638	685.793543857171	1487.920149481217	467.917799862810	734.904119984938	932.972404583777	604.806311254179	808.788414759709	753.436519029092	573.926649658306	751.215822932463	632.591842747226	636.207380899343	839.571227214888	594.382870528366	557.433020268915	863.235775101108	508.363171585383	565.626471021412	743.953886692813	724.906168852080	360.285890868802	632.037573090620	630.630181212439	291.583688290714	684.369329143164	537.978225801993	362.530955055703	666.598240342498	469.307367175679	373.373908377031	633.490144354772	403.461502563595	361.861057506086	534.082952668754	301.609849844768	304.036511980307	560.769421849707	186.255012115338	379.959925305256	846.039675528634	417.930736933571	573.739078508257	791.521120574416	306.591751947843	637.741440875077	850.197330955943	218.285682118725	579.357451052888	741.321192049502	42.724281655958	554.563284240342	909.857994023254	104.619307479595	586.284960965112	828.015846975024	37.503313535389	625.415343768742	1032.476259456641	59.322734320093	607.047858848846	413.653342329888	37.286236566010	409.873219423859	492.222033902858	34.968313994749	333.895580076868	574.624203964911	95.110767526698	365.854964475057	703.939769617917	41.756251778996	343.274472295853	740.088274640135	1092.400901958593	169.853127396704	983.632829959480	1020.825488246721	210.965049343138	557.145654459633	1096.318919791056	741.318674740223	569.805272539072	835.041165725753	749.712939956662	
76	7.646071428571	742.603550198614	953.561398334901	332.212801064491	516.978806596745	993.019769328031	473.643077478598	701.093592584022	1431.038116708497	319.365592004528	785.846770485969	1355.825873846703	488.545118764445	681.781650051377	1422.930521835875	655.450643828303	685.839832462378	1487.120323181000	471.686841563069	737.090866253161	932.044893993723	607.069895932010	811.437340127982	752.560480105897	575.222896804927	752.995010782545	631.577076447874	636.574059216050	841.688463229737	593.621284490840	558.180125054426	864.063187946985	506.299951039008	566.040722661999	744.684896100142	723.743480664773	361.778903788650	631.883344025289	629.731341279540	294.004608655053	684.668513232903	536.677285740994	364.261477417766	666.772170833401	467.225314404554	374.983596774912	632.050945272612	401.955205167670	363.448782278517	530.495069616479	302.119079168664	305.409406451972	555.461485385481	185.858815716309	380.537108074551	845.230821421434	415.391637710338	573.887031163534	788.292591001669	305.058460001386	637.780161905367	844.332653506793	215.486545065135	578.815966756830	730.756718903380	42.680354071762	554.491769662661	900.411652491157	101.773130647606	585.542653165293	817.289781800365	36.858547765830	625.559377185463	1022.524407511588	54.477155000733	606.823993684775	406.602067205008	38.040789606812	409.962984007124	485.223412911897	35.274122042229	334.069214197951	567.957533035460	95.123713783008	365.888997544657	697.035190395548	41.400250934354	343.154839108493	741.409984314877	1091.981073336776	173.113035530221	985.240560932656	1022.070061056399	215.004117325912	562.171334673243	1092.905887043994	744.775509001106	583.788887506613	832.035415199275	753.713880498694	
